<?xml version="1.0" encoding="UTF-8"?>
<svg version="1.1" xmlns="http://www.w3.org/2000/svg" width="1024" height="1024">
<path d="M0 0 C337.92 0 675.84 0 1024 0 C1024 337.92 1024 675.84 1024 1024 C686.08 1024 348.16 1024 0 1024 C0 686.08 0 348.16 0 0 Z " fill="#CC5B17" transform="translate(0,0)"/>
<path d="M0 0 C1.74925688 1.34934901 3.47710381 2.7267199 5.1875 4.125 C5.73744629 4.57101562 6.28739258 5.01703125 6.85400391 5.4765625 C26.6223671 21.60608055 41.69022413 41.56967157 51.0625 65.375 C51.47375122 66.41865723 51.47375122 66.41865723 51.89331055 67.48339844 C53.4880482 71.73141118 54.69795197 76.00250983 55.78173828 80.40917969 C56.17898605 82.01826202 56.17898605 82.01826202 56.58425903 83.65985107 C56.78332855 84.47335022 56.98239807 85.28684937 57.1875 86.125 C58.5010301 86.12589563 58.5010301 86.12589563 59.84109616 86.12680936 C111.74828149 86.16270793 163.65540887 86.21935405 215.56254049 86.30292095 C221.79592519 86.31293834 228.02931016 86.32278248 234.26269531 86.33251953 C235.50364333 86.3344609 236.74459135 86.33640228 238.02314386 86.33840248 C258.11299863 86.36941852 278.20284198 86.38640203 298.29271618 86.39819422 C318.90875294 86.41060782 339.52472978 86.43811398 360.14072871 86.47961307 C372.86057914 86.5047424 385.58033019 86.51811768 398.3002058 86.51642957 C407.02422295 86.5163998 415.74813891 86.53103802 424.47211662 86.55716428 C429.50442867 86.57180317 434.53653322 86.58001912 439.56886292 86.57080269 C444.18090413 86.56249906 448.7925289 86.57271649 453.40450844 86.59733662 C455.068228 86.60300748 456.7319872 86.60202466 458.39569464 86.59351245 C472.43048003 86.52788766 484.33326932 88.38666239 494.6796875 98.59765625 C501.28811757 105.92949435 501.98442169 113.44310826 501.66015625 122.81640625 C501.01609118 130.95602519 497.23889732 137.55488511 491.375 143.125 C485.08080167 148.0782079 477.69477044 151.27707615 469.640625 151.22265625 C468.79628906 151.21943359 467.95195313 151.21621094 467.08203125 151.21289062 C466.20933594 151.20451172 465.33664062 151.19613281 464.4375 151.1875 C463.54933594 151.18298828 462.66117188 151.17847656 461.74609375 151.17382812 C459.55982671 151.162074 457.37369821 151.14564249 455.1875 151.125 C455.19638245 152.27678741 455.20526489 153.42857483 455.2144165 154.61526489 C455.29553038 165.4738556 455.35547899 176.33238477 455.39474869 187.19120979 C455.41561644 192.77376058 455.44391969 198.35606663 455.48925781 203.93847656 C455.53274388 209.32661212 455.55664322 214.71451239 455.56700897 220.10280991 C455.57439533 222.15771056 455.58881919 224.21259845 455.61042023 226.26739883 C455.63949056 229.14746094 455.64345444 232.02655288 455.64160156 234.90673828 C455.65598267 235.75478531 455.67036377 236.60283234 455.68518066 237.47657776 C455.64795128 242.83055152 454.76428684 245.88910229 451.1875 250.125 C446.7023549 253.12606641 442.6451591 253.58088928 437.375 253.55859375 C436.6430542 253.5638356 435.9111084 253.56907745 435.15698242 253.57447815 C433.6173631 253.58086997 432.07769477 253.5795983 430.53808594 253.57104492 C428.19377146 253.5625228 425.85188755 253.59135026 423.5078125 253.62304688 C422.00520906 253.62465898 420.50260134 253.62408117 419 253.62109375 C418.30608154 253.63232773 417.61216309 253.64356171 416.8972168 253.65513611 C411.86907824 253.58376419 408.97131709 252.41085635 405.1875 249.125 C402.6229195 244.84677186 401.81653947 241.71522011 401.84692383 236.75244141 C401.84726372 234.89119125 401.84726372 234.89119125 401.84761047 232.99234009 C401.86292665 231.65374381 401.87857458 230.31515129 401.89453125 228.9765625 C401.90013279 227.5950873 401.90440025 226.21360611 401.90739441 224.8321228 C401.91879942 221.21196784 401.94822831 217.59217913 401.98150635 213.97216797 C402.01230158 210.27186119 402.0260847 206.57149295 402.04101562 202.87109375 C402.07150786 195.62207332 402.13023712 188.37405609 402.1875 181.125 C385.0275 181.125 367.8675 181.125 350.1875 181.125 C350.38509038 196.98114302 350.38509038 196.98114302 350.63793945 212.83642578 C350.65254884 214.83104107 350.66528844 216.82567131 350.67578125 218.8203125 C350.714151 220.36126587 350.714151 220.36126587 350.7532959 221.93334961 C350.75825193 230.08701227 350.75825193 230.08701227 347.90698242 233.70654297 C343.20413928 237.88881823 340.00476488 238.44066402 333.7890625 238.4609375 C333.07648285 238.4675943 332.3639032 238.4742511 331.62973022 238.48110962 C330.12524996 238.49121288 328.62072509 238.49592736 327.11621094 238.49560547 C324.82671393 238.49997289 322.53915548 238.53629599 320.25 238.57421875 C318.78386071 238.58008884 317.31771233 238.58405695 315.8515625 238.5859375 C315.17324371 238.60030853 314.49492493 238.61467957 313.79605103 238.62948608 C308.81630695 238.58214997 306.04284391 237.19855591 302.1875 234.125 C283.90313298 213.31865133 298.1875 178.82377655 298.1875 151.125 C217.9975 151.125 137.8075 151.125 55.1875 151.125 C54.8575 153.435 54.5275 155.745 54.1875 158.125 C49.03058525 181.28246622 35.69645062 201.51960534 19.1875 218.125 C18.72118164 218.59534668 18.25486328 219.06569336 17.77441406 219.55029297 C-7.16529811 244.34450922 -41.80959829 257.31421366 -76.69116211 257.31030273 C-78.8457472 257.31247057 -80.99980321 257.33062162 -83.15429688 257.34960938 C-95.95493923 257.40351724 -108.45804358 256.32959627 -120.75 252.5 C-121.58917969 252.24275146 -122.42835938 251.98550293 -123.29296875 251.72045898 C-130.95934142 249.264461 -138.03130405 245.97727588 -145.06640625 242.08789062 C-146.6662501 241.20565011 -148.28545846 240.35876404 -149.90625 239.515625 C-179.50636778 223.44244276 -199.50013017 196.18259716 -210.8125 165.125 C-211.23660156 163.96871094 -211.66070312 162.81242188 -212.09765625 161.62109375 C-220.14699024 137.65672677 -220.10279626 110.65532846 -214.8125 86.125 C-214.67328125 85.4355127 -214.5340625 84.74602539 -214.390625 84.03564453 C-212.22110401 73.42658646 -208.555883 63.84050782 -203.8125 54.125 C-203.49764648 53.47611816 -203.18279297 52.82723633 -202.85839844 52.15869141 C-195.920951 38.05443027 -186.59807691 26.46036644 -175.8125 15.125 C-175.16925781 14.41730469 -174.52601563 13.70960938 -173.86328125 12.98046875 C-154.82461033 -7.29716123 -128.46972405 -17.51944869 -101.8125 -22.875 C-101.04703857 -23.05224609 -100.28157715 -23.22949219 -99.49291992 -23.41210938 C-65.4557148 -29.29010745 -27.95973562 -19.63304063 0 0 Z " fill="#FCCA47" transform="translate(369.8125,522.875)"/>
<path d="M0 0 C10.23 0 20.46 0 31 0 C31 13.53 31 27.06 31 41 C34.96 41.33 38.92 41.66 43 42 C60.32489191 45.01161672 76.2720253 52.05709686 87.17578125 66.28125 C93.62630469 75.89487808 96.35365409 85.84696967 96.3125 97.3125 C96.32861328 98.19873047 96.34472656 99.08496094 96.36132812 99.99804688 C96.37108161 113.37007747 91.2323979 125.05263885 81.8125 134.5 C80.21725222 136.00948177 78.61421074 137.51081419 77 139 C75.99456238 139.99453265 74.9918901 140.99195534 74 142 C74.72445312 142.11085938 75.44890625 142.22171875 76.1953125 142.3359375 C86.16579516 144.69663674 93.9471537 152.4788267 99.25 160.875 C104.50674177 169.58701586 105.50161672 177.76948944 105.4375 187.8125 C105.45748047 188.91142578 105.47746094 190.01035156 105.49804688 191.14257812 C105.48908481 206.35120579 99.60352111 218.77834971 89.3046875 229.71875 C74.13687663 244.73231195 51.88576433 251 31 251 C31 262.88 31 274.76 31 287 C20.77 287 10.54 287 0 287 C0 275.12 0 263.24 0 251 C-6.6 251 -13.2 251 -20 251 C-20 262.88 -20 274.76 -20 287 C-29.57 287 -39.14 287 -49 287 C-49 275.12 -49 263.24 -49 251 C-64.84 251 -80.68 251 -97 251 C-97 239.45 -97 227.9 -97 216 C-88.5 215.6875 -88.5 215.6875 -85.87304688 215.61206055 C-79.95870847 215.33658536 -74.24437328 214.49022485 -69.40039062 210.7722168 C-65.10746371 205.33944894 -65.70958772 198.54840891 -65.7253418 191.99682617 C-65.72023087 190.8984996 -65.71511993 189.80017303 -65.70985413 188.66856384 C-65.6959719 185.0433098 -65.69691411 181.41824619 -65.69921875 177.79296875 C-65.69533069 175.26719594 -65.69099579 172.74142378 -65.68623352 170.21565247 C-65.67877395 164.92230847 -65.67892168 159.62903406 -65.68432617 154.33569336 C-65.69035975 148.23493724 -65.67806703 142.13441212 -65.6567561 136.0336954 C-65.63695068 130.14544733 -65.63397426 124.25728909 -65.63749123 118.36901283 C-65.63697888 115.87284109 -65.63175748 113.37666559 -65.62167931 110.88051414 C-65.6092959 107.38394951 -65.6161189 103.88791406 -65.62768555 100.39135742 C-65.62004181 99.36715698 -65.61239807 98.34295654 -65.60452271 97.28771973 C-65.64898516 91.18397873 -66.20854006 85.52753204 -69 80 C-71.20825949 78.39980539 -71.20825949 78.39980539 -74 78 C-75.00675781 77.67128906 -76.01351563 77.34257812 -77.05078125 77.00390625 C-81.63019169 75.68049865 -86.19818483 75.54859526 -90.9375 75.375 C-93.928125 75.25125 -96.91875 75.1275 -100 75 C-100 63.78 -100 52.56 -100 41 C-83.17 41 -66.34 41 -49 41 C-49 28.46 -49 15.92 -49 3 C-39.1 3 -29.2 3 -19 3 C-19 15.54 -19 28.08 -19 41 C-12.73 41 -6.46 41 0 41 C0 27.47 0 13.94 0 0 Z " fill="#FBC948" transform="translate(516,292)"/>
<path d="M0 0 C2.56192506 0.01076645 5.12315385 -0.00000053 7.68505859 -0.01269531 C21.53824232 -0.02515358 34.90982357 1.30404187 48.49365234 4.13574219 C49.33597412 4.30936279 50.1782959 4.4829834 51.04614258 4.66186523 C79.76602021 10.69366643 107.11788319 21.70813801 131.43115234 38.26074219 C132.04812988 38.67710937 132.66510742 39.09347656 133.30078125 39.52246094 C141.22455311 44.90573944 148.41999598 50.71617766 155.43115234 57.26074219 C156.78088094 58.43254046 158.13484565 59.59948303 159.49365234 60.76074219 C167.66529393 67.9150308 174.71245021 75.7405668 181.43115234 84.26074219 C182.24712891 85.27136719 183.06310547 86.28199219 183.90380859 87.32324219 C190.19932158 95.20757048 195.47784834 103.47957567 200.43115234 112.26074219 C200.77388184 112.86112305 201.11661133 113.46150391 201.46972656 114.08007812 C230.94070704 166.02462103 237.57227146 229.67400883 221.80615234 287.13574219 C212.52643663 318.32055272 195.68470226 351.00719227 172.43115234 374.26074219 C170.68186515 374.35439225 168.92878981 374.37818657 167.17700195 374.37426758 C166.05591537 374.37419205 164.9348288 374.37411652 163.7797699 374.3740387 C161.95011436 374.36629677 161.95011436 374.36629677 160.08349609 374.35839844 C158.84193253 374.35698349 157.60036896 374.35556854 156.32118225 374.35411072 C153.01509744 374.3494481 149.70908088 374.34045716 146.40301514 374.32940674 C143.03154085 374.31919046 139.66005952 374.31461263 136.28857422 374.30957031 C129.6694146 374.29851614 123.05028741 374.28175955 116.43115234 374.26074219 C117.7026306 370.44630741 119.40360977 369.46749198 122.55615234 367.01074219 C131.03204991 360.21691708 137.66664098 352.74869594 144.43115234 344.26074219 C145.33184228 343.1510816 146.23289478 342.04171522 147.13427734 340.93261719 C163.36586976 320.82252847 175.20956395 298.11830903 182.43115234 273.26074219 C182.68654785 272.42172363 182.94194336 271.58270508 183.20507812 270.71826172 C191.61519027 241.88436217 191.0499595 204.95623723 182.43115234 176.26074219 C182.03766602 174.88426514 182.03766602 174.88426514 181.63623047 173.47998047 C178.13555636 161.40601276 173.45750416 150.27320024 167.43115234 139.26074219 C166.81626953 138.09414063 166.20138672 136.92753906 165.56787109 135.72558594 C157.78516629 121.43312391 147.7111885 108.93142894 136.43115234 97.26074219 C135.54814453 96.32617188 134.66513672 95.39160156 133.75537109 94.42871094 C111.36290505 71.25850367 81.26494459 55.83525941 50.24365234 47.94824219 C49.29490234 47.7057373 48.34615234 47.46323242 47.36865234 47.21337891 C33.34746378 43.82076916 19.64782547 42.91032319 5.2890625 42.94506836 C2.56648713 42.94823019 -0.15499908 42.92466272 -2.87744141 42.89941406 C-14.10842835 42.85867487 -24.59731251 43.88509111 -35.56884766 46.26074219 C-36.51695312 46.45418213 -37.46505859 46.64762207 -38.44189453 46.84692383 C-70.02045715 53.51566913 -97.56724997 69.00669582 -121.56884766 90.26074219 C-122.48666016 91.05609375 -123.40447266 91.85144531 -124.35009766 92.67089844 C-138.85739804 105.40848296 -150.71462318 121.28688406 -159.59423828 138.38916016 C-160.51705689 140.16128628 -161.47175514 141.91670487 -162.42822266 143.67089844 C-177.14888654 171.51640202 -182.66530673 203.01165855 -181.56884766 234.26074219 C-181.54274414 235.05883301 -181.51664062 235.85692383 -181.48974609 236.67919922 C-181.1202663 246.97154726 -180.11568013 257.07867986 -178.56884766 267.26074219 C-192.5907207 266.52782448 -206.57639414 265.41961085 -220.56884766 264.26074219 C-222.28901106 251.61503036 -222.91303606 239.16176677 -222.88452148 226.40307617 C-222.88136176 223.46137338 -222.90493353 220.52068123 -222.93017578 217.57910156 C-222.99034268 199.35138179 -220.9815046 181.70502985 -215.56884766 164.26074219 C-215.31538574 163.41237793 -215.06192383 162.56401367 -214.80078125 161.68994141 C-208.50556259 140.77497749 -199.9222454 120.36683536 -187.56884766 102.26074219 C-187.14168457 101.62297852 -186.71452148 100.98521484 -186.27441406 100.328125 C-171.83447663 78.83635855 -154.46328612 59.63106963 -133.56884766 44.26074219 C-132.73224609 43.64070313 -131.89564453 43.02066406 -131.03369141 42.38183594 C-128.58016921 40.61644684 -126.08888415 38.92985727 -123.56884766 37.26074219 C-123.03694824 36.90189941 -122.50504883 36.54305664 -121.95703125 36.17333984 C-98.60985966 20.51960478 -72.77360153 10.77561896 -45.56884766 4.26074219 C-44.65232422 4.03644531 -43.73580078 3.81214844 -42.79150391 3.58105469 C-28.76476303 0.46400116 -14.31127425 -0.07126856 0 0 Z " fill="#FBC947" transform="translate(514.56884765625,214.7392578125)"/>
<path d="M0 0 C1.91196167 0.01595215 1.91196167 0.01595215 3.86254883 0.03222656 C12.75766785 0.2123751 20.29010036 1.07899323 28.5625 4.5 C29.84253906 4.91572266 29.84253906 4.91572266 31.1484375 5.33984375 C48.27547093 11.20193564 62.54897013 25.64829102 70.5625 41.5 C76.59428494 54.93790063 78.95789461 67.35188757 78.9375 82.125 C78.93695618 82.78918945 78.93641235 83.45337891 78.93585205 84.13769531 C78.8968297 94.50203198 78.16940343 103.72754601 74.5625 113.5 C74.15 114.68980469 73.7375 115.87960937 73.3125 117.10546875 C66.62873567 134.51743434 53.38284809 148.46382457 36.5625 156.5 C16.65011729 164.71449564 -6.95969272 167.69112291 -27.4375 159.5 C-35.89344458 155.96198574 -43.60277708 151.65849592 -50.4375 145.5 C-51.33210938 144.69820312 -52.22671875 143.89640625 -53.1484375 143.0703125 C-68.00808698 129.02489039 -77.04545198 109.36222205 -77.73828125 88.80078125 C-77.75759582 86.80477713 -77.7610741 84.80856685 -77.75 82.8125 C-77.74508545 81.75957764 -77.7401709 80.70665527 -77.73510742 79.62182617 C-77.38474151 56.18683887 -68.76594641 35.55552362 -51.9765625 19.0859375 C-46.8986004 14.64843909 -41.54265233 11.23968244 -35.5625 8.1875 C-34.95140381 7.87401611 -34.34030762 7.56053223 -33.71069336 7.23754883 C-22.70084296 1.91818291 -12.19383872 -0.18381456 0 0 Z " fill="#CB5A17" transform="translate(290.4375,558.5)"/>
<path d="M0 0 C5.73375 -0.04125 11.4675 -0.0825 17.375 -0.125 C19.14278809 -0.14320801 20.91057617 -0.16141602 22.73193359 -0.18017578 C59.38435893 -0.39858474 59.38435893 -0.39858474 70 9.25 C75.33769737 15.29171021 76.53083395 21.37872965 76.2890625 29.32421875 C75.49651743 36.66061566 72.10233689 42.98630131 66.8125 48.125 C58.25891968 53.82738688 49.03797519 55.52612734 39 57 C38.35426025 57.09933838 37.70852051 57.19867676 37.04321289 57.30102539 C29.53685272 58.30559075 21.99556623 58.10885844 14.4375 58.0625 C9.673125 58.041875 4.90875 58.02125 0 58 C0 38.86 0 19.72 0 0 Z " fill="#CB5A17" transform="translate(496,451)"/>
<path d="M0 0 C5.176875 -0.04125 10.35375 -0.0825 15.6875 -0.125 C18.09421997 -0.15231201 18.09421997 -0.15231201 20.54956055 -0.18017578 C33.82500084 -0.23089223 49.38072779 -0.09064688 60.4375 8.3125 C65.87201318 14.01211138 67.27847336 17.49939452 67.625 25.375 C67.42150542 32.47625906 66.00733116 36.93776389 61 42 C48.91010048 52.73773971 31.24274615 51.29369428 16.0625 51.125 C10.761875 51.08375 5.46125 51.0425 0 51 C0 34.17 0 17.34 0 0 Z " fill="#CB5A17" transform="translate(496,368)"/>
<path d="M0 0 C0.33 0.66 0.66 1.32 1 2 C-0.1875 4.6875 -0.1875 4.6875 -2 8 C-2.30292969 8.6084375 -2.60585938 9.216875 -2.91796875 9.84375 C-5.02361761 13.90034699 -6.80122133 16.15663375 -11 18 C-13.8125 18.6875 -13.8125 18.6875 -16 19 C-13.8073796 16.72304805 -11.67450254 14.75941492 -9.125 12.875 C-4.90859147 9.46530229 -2.56788426 4.68957587 0 0 Z " fill="#C2570F" transform="translate(870,652)"/>
<path d="M0 0 C0.33 0 0.66 0 1 0 C1.33 2.97 1.66 5.94 2 9 C-3.61 8.67 -9.22 8.34 -15 8 C-15 7.67 -15 7.34 -15 7 C-10.05 7 -5.1 7 0 7 C0 4.69 0 2.38 0 0 Z " fill="#F6BC4A" transform="translate(334,473)"/>
<path d="M0 0 C4.7190991 0.46765847 6.91832317 2.34934594 10.3125 5.5625 C11.19550781 6.38878906 12.07851563 7.21507812 12.98828125 8.06640625 C13.65214844 8.70449219 14.31601562 9.34257813 15 10 C14.67 10.66 14.34 11.32 14 12 C13.40832031 11.45730469 12.81664062 10.91460938 12.20703125 10.35546875 C11.41683594 9.64003906 10.62664063 8.92460938 9.8125 8.1875 C9.03519531 7.47980469 8.25789062 6.77210938 7.45703125 6.04296875 C5.08274223 4.06879839 2.65098348 2.56798845 0 1 C0 0.67 0 0.34 0 0 Z " fill="#C25A0F" transform="translate(852,612)"/>
<path d="M0 0 C0 0.66 0 1.32 0 2 C-5.94 2.495 -5.94 2.495 -12 3 C-3.6 -1.2 -3.6 -1.2 0 0 Z " fill="#F7BF49" transform="translate(325,717)"/>
<path d="M0 0 C3.8063457 0.67170806 7.35206816 1.72746564 11 3 C8.83032311 3.95465783 7.43671207 4.14401212 5.17578125 3.3984375 C3.4315257 2.64129615 1.71372869 1.82390802 0 1 C0 0.67 0 0.34 0 0 Z " fill="#C25A0F" transform="translate(260,715)"/>
</svg>
